<svg width="95" height="20" viewBox="0 0 95 20" fill="none" xmlns="http://www.w3.org/2000/svg">
<g clip-path="url(#clip0_31_73)">
<path d="M12.6202 6.85747L12.7108 7.01302L12.8867 7.05113L17.3223 8.01211C17.3223 8.01213 17.3224 8.01214 17.3225 8.01215C17.3225 8.01216 17.3225 8.01216 17.3225 8.01217C17.4271 8.03494 17.5239 8.08471 17.6033 8.15653C17.6827 8.2284 17.742 8.31984 17.7751 8.42174C17.8081 8.52364 17.8139 8.63243 17.7919 8.73726C17.7698 8.84209 17.7207 8.93932 17.6493 9.01923L14.6258 12.4032L14.5058 12.5374L14.5239 12.7166L14.9816 17.2317L14.9816 17.2317C14.9924 17.3384 14.9751 17.4461 14.9313 17.5439C14.8875 17.6418 14.8188 17.7265 14.7321 17.7895C14.6453 17.8525 14.5436 17.8917 14.4369 17.9031C14.3303 17.9145 14.2226 17.8977 14.1245 17.8545L14.1244 17.8544L9.97138 16.0239L9.80658 15.9512L9.64178 16.0239L5.48875 17.8544L5.48867 17.8545C5.39057 17.8977 5.28283 17.9145 5.17621 17.9031C5.0696 17.8917 4.96784 17.8525 4.8811 17.7895C4.79435 17.7265 4.72566 17.6418 4.68188 17.5439C4.6381 17.4461 4.62076 17.3384 4.63159 17.2317L4.6316 17.2317L5.08923 12.7166L5.10739 12.5374L4.98737 12.4031L1.96372 9.0199L1.96361 9.01978C1.89213 8.93987 1.84287 8.84261 1.82073 8.7377C1.7986 8.6328 1.80437 8.52393 1.83747 8.42195C1.87056 8.31998 1.92983 8.22847 2.00936 8.15656C2.08888 8.08466 2.18587 8.03487 2.29065 8.01216L6.72643 7.05113L6.90237 7.01302L6.99298 6.85747L9.27703 2.93658C9.27704 2.93656 9.27705 2.93654 9.27706 2.93652C9.33102 2.84395 9.4083 2.76715 9.5012 2.71376C9.59412 2.66037 9.69941 2.63227 9.80658 2.63227C9.91375 2.63227 10.019 2.66037 10.112 2.71376L10.3142 2.36188L10.112 2.71376C10.2049 2.76716 10.2822 2.84398 10.3361 2.93658L12.6202 6.85747Z" fill="#F4CE14" stroke="#FBDABB" stroke-width="0.817204"/>
</g>
<g clip-path="url(#clip1_31_73)">
<path d="M31.4161 6.85747L31.5067 7.01302L31.6826 7.05113L36.1182 8.01211C36.1182 8.01213 36.1183 8.01214 36.1184 8.01215C36.1184 8.01216 36.1184 8.01216 36.1184 8.01217C36.223 8.03494 36.3198 8.08471 36.3992 8.15653C36.4786 8.2284 36.5379 8.31984 36.571 8.42174C36.604 8.52364 36.6098 8.63243 36.5878 8.73726C36.5657 8.84209 36.5166 8.93932 36.4452 9.01923L33.4217 12.4032L33.3017 12.5374L33.3198 12.7166L33.7775 17.2317L33.7775 17.2317C33.7883 17.3384 33.771 17.4461 33.7272 17.5439C33.6834 17.6418 33.6147 17.7265 33.528 17.7895C33.4412 17.8525 33.3395 17.8917 33.2328 17.9031C33.1262 17.9145 33.0185 17.8977 32.9204 17.8545L32.9203 17.8544L28.7673 16.0239L28.6025 15.9512L28.4377 16.0239L24.2846 17.8544L24.2846 17.8545C24.1865 17.8977 24.0787 17.9145 23.9721 17.9031C23.8655 17.8917 23.7637 17.8525 23.677 17.7895C23.5903 17.7265 23.5216 17.6418 23.4778 17.5439C23.434 17.4461 23.4167 17.3384 23.4275 17.2317L23.4275 17.2317L23.8851 12.7166L23.9033 12.5374L23.7833 12.4031L20.7596 9.0199L20.7595 9.01978C20.688 8.93987 20.6388 8.84261 20.6166 8.7377C20.5945 8.6328 20.6003 8.52393 20.6334 8.42195C20.6665 8.31998 20.7257 8.22847 20.8053 8.15656C20.8848 8.08466 20.9818 8.03487 21.0865 8.01216L25.5223 7.05113L25.6983 7.01302L25.7889 6.85747L28.0729 2.93658C28.0729 2.93656 28.073 2.93654 28.073 2.93652C28.1269 2.84395 28.2042 2.76715 28.2971 2.71376C28.39 2.66037 28.4953 2.63227 28.6025 2.63227C28.7096 2.63227 28.8149 2.66037 28.9079 2.71376L29.1101 2.36188L28.9079 2.71376C29.0008 2.76716 29.0781 2.84398 29.132 2.93658L31.4161 6.85747Z" fill="#F4CE14" stroke="#FBDABB" stroke-width="0.817204"/>
</g>
<g clip-path="url(#clip2_31_73)">
<path d="M50.2115 6.85747L50.3021 7.01302L50.478 7.05113L54.9136 8.01211C54.9136 8.01213 54.9137 8.01214 54.9138 8.01215C54.9138 8.01216 54.9138 8.01216 54.9138 8.01217C55.0184 8.03494 55.1152 8.08471 55.1946 8.15653C55.2741 8.2284 55.3333 8.31984 55.3664 8.42174C55.3995 8.52364 55.4053 8.63243 55.3832 8.73726C55.3611 8.84209 55.312 8.93932 55.2406 9.01923L52.2171 12.4032L52.0971 12.5374L52.1152 12.7166L52.5729 17.2317L52.5729 17.2317C52.5837 17.3384 52.5664 17.4461 52.5226 17.5439C52.4788 17.6418 52.4101 17.7265 52.3234 17.7895C52.2366 17.8525 52.1349 17.8917 52.0283 17.9031C51.9216 17.9145 51.8139 17.8977 51.7158 17.8545L51.7157 17.8544L47.5627 16.0239L47.3979 15.9512L47.2331 16.0239L43.0801 17.8544L43.08 17.8545C42.9819 17.8977 42.8741 17.9145 42.7675 17.9031C42.6609 17.8917 42.5591 17.8525 42.4724 17.7895C42.3857 17.7265 42.317 17.6418 42.2732 17.5439C42.2294 17.4461 42.2121 17.3384 42.2229 17.2317L42.2229 17.2317L42.6805 12.7166L42.6987 12.5374L42.5787 12.4031L39.555 9.0199L39.5549 9.01978C39.4834 8.93987 39.4342 8.84261 39.412 8.7377C39.3899 8.6328 39.3957 8.52393 39.4288 8.42195C39.4619 8.31998 39.5211 8.22847 39.6007 8.15656C39.6802 8.08466 39.7772 8.03487 39.882 8.01216L44.3177 7.05113L44.4937 7.01302L44.5843 6.85747L46.8683 2.93658C46.8684 2.93656 46.8684 2.93654 46.8684 2.93652C46.9223 2.84395 46.9996 2.76715 47.0925 2.71376C47.1854 2.66037 47.2907 2.63227 47.3979 2.63227C47.5051 2.63227 47.6104 2.66037 47.7033 2.71376L47.9055 2.36188L47.7033 2.71376C47.7962 2.76716 47.8735 2.84398 47.9274 2.93658L50.2115 6.85747Z" fill="#F4CE14" stroke="#FBDABB" stroke-width="0.817204"/>
</g>
<g clip-path="url(#clip3_31_73)">
<path d="M69.0071 6.85747L69.0978 7.01302L69.2737 7.05113L73.7092 8.01211C73.7093 8.01213 73.7094 8.01214 73.7094 8.01215C73.7094 8.01216 73.7095 8.01216 73.7095 8.01217C73.8141 8.03494 73.9109 8.08471 73.9903 8.15653C74.0697 8.2284 74.1289 8.31984 74.162 8.42174C74.1951 8.52364 74.2009 8.63243 74.1788 8.73726C74.1568 8.84209 74.1076 8.93932 74.0363 9.01923L71.0127 12.4032L70.8927 12.5374L70.9109 12.7166L71.3685 17.2317L71.3685 17.2317C71.3794 17.3384 71.362 17.4461 71.3182 17.5439C71.2745 17.6418 71.2058 17.7265 71.119 17.7895C71.0323 17.8525 70.9305 17.8917 70.8239 17.9031C70.7173 17.9145 70.6096 17.8977 70.5115 17.8545L70.5114 17.8544L66.3583 16.0239L66.1935 15.9512L66.0287 16.0239L61.8757 17.8544L61.8756 17.8545C61.7775 17.8977 61.6698 17.9145 61.5632 17.9031C61.4566 17.8917 61.3548 17.8525 61.2681 17.7895C61.1813 17.7265 61.1126 17.6418 61.0688 17.5439C61.0251 17.4461 61.0077 17.3384 61.0186 17.2317L61.0186 17.2317L61.4762 12.7166L61.4944 12.5374L61.3743 12.4031L58.3507 9.0199L58.3506 9.01978C58.2791 8.93987 58.2298 8.84261 58.2077 8.7377C58.1856 8.6328 58.1913 8.52393 58.2244 8.42195C58.2575 8.31998 58.3168 8.22847 58.3963 8.15656C58.4758 8.08466 58.5728 8.03487 58.6776 8.01216L63.1134 7.05113L63.2893 7.01302L63.3799 6.85747L65.664 2.93658C65.664 2.93656 65.664 2.93654 65.664 2.93652C65.718 2.84395 65.7953 2.76715 65.8882 2.71376C65.9811 2.66037 66.0864 2.63227 66.1935 2.63227C66.3007 2.63227 66.406 2.66037 66.4989 2.71376L66.7011 2.36188L66.4989 2.71376C66.5918 2.76716 66.6691 2.84398 66.7231 2.93658L69.0071 6.85747Z" stroke="#FBDABB" stroke-width="0.817204"/>
</g>
<g clip-path="url(#clip4_31_73)">
<path d="M87.8028 6.85747L87.8934 7.01302L88.0693 7.05113L92.5049 8.01211C92.5049 8.01213 92.505 8.01214 92.5051 8.01215C92.5051 8.01216 92.5051 8.01216 92.5051 8.01217C92.6097 8.03494 92.7065 8.08471 92.7859 8.15653C92.8654 8.2284 92.9246 8.31984 92.9577 8.42174C92.9908 8.52364 92.9966 8.63243 92.9745 8.73726C92.9524 8.84209 92.9033 8.93932 92.8319 9.01923L89.8084 12.4032L89.6884 12.5374L89.7066 12.7166L90.1642 17.2317L90.1642 17.2317C90.175 17.3384 90.1577 17.4461 90.1139 17.5439C90.0701 17.6418 90.0014 17.7265 89.9147 17.7895C89.8279 17.8525 89.7262 17.8917 89.6196 17.9031C89.5129 17.9145 89.4052 17.8977 89.3071 17.8545L89.307 17.8544L85.154 16.0239L84.9892 15.9512L84.8244 16.0239L80.6714 17.8544L80.6713 17.8545C80.5732 17.8977 80.4654 17.9145 80.3588 17.9031C80.2522 17.8917 80.1505 17.8525 80.0637 17.7895C79.977 17.7265 79.9083 17.6418 79.8645 17.5439C79.8207 17.4461 79.8034 17.3384 79.8142 17.2317L79.8142 17.2317L80.2718 12.7166L80.29 12.5374L80.17 12.4031L77.1463 9.0199L77.1462 9.01978C77.0747 8.93987 77.0255 8.84261 77.0033 8.7377C76.9812 8.6328 76.987 8.52393 77.0201 8.42195C77.0532 8.31998 77.1125 8.22847 77.192 8.15656C77.2715 8.08466 77.3685 8.03487 77.4733 8.01216L81.909 7.05113L82.085 7.01302L82.1756 6.85747L84.4596 2.93658C84.4597 2.93656 84.4597 2.93654 84.4597 2.93652C84.5136 2.84395 84.5909 2.76715 84.6838 2.71376C84.7767 2.66037 84.882 2.63227 84.9892 2.63227C85.0964 2.63227 85.2017 2.66037 85.2946 2.71376L85.4968 2.36188L85.2946 2.71376C85.3875 2.76716 85.4648 2.84398 85.5187 2.93658L87.8028 6.85747Z" stroke="#FBDABB" stroke-width="0.817204"/>
</g>
<defs>
<clipPath id="clip0_31_73">
<rect width="19.6129" height="19.6129" fill="white" transform="translate(0 0.387085)"/>
</clipPath>
<clipPath id="clip1_31_73">
<rect width="19.6129" height="19.6129" fill="white" transform="translate(18.7959 0.387085)"/>
</clipPath>
<clipPath id="clip2_31_73">
<rect width="19.6129" height="19.6129" fill="white" transform="translate(37.5913 0.387085)"/>
</clipPath>
<clipPath id="clip3_31_73">
<rect width="19.6129" height="19.6129" fill="white" transform="translate(56.3872 0.387085)"/>
</clipPath>
<clipPath id="clip4_31_73">
<rect width="19.6129" height="19.6129" fill="white" transform="translate(75.1829 0.387085)"/>
</clipPath>
</defs>
</svg>
