<svg width="95" height="20" viewBox="0 0 95 20" fill="none" xmlns="http://www.w3.org/2000/svg">
<g clip-path="url(#clip0_31_94)">
<path d="M12.6202 6.85747L12.7108 7.01302L12.8867 7.05113L17.3223 8.01211C17.3223 8.01213 17.3224 8.01214 17.3225 8.01215C17.3225 8.01216 17.3225 8.01216 17.3225 8.01217C17.4271 8.03494 17.5239 8.08471 17.6033 8.15653C17.6827 8.2284 17.742 8.31984 17.7751 8.42174C17.8081 8.52364 17.8139 8.63243 17.7919 8.73726C17.7698 8.84209 17.7207 8.93932 17.6493 9.01923L14.6258 12.4032L14.5058 12.5374L14.5239 12.7166L14.9816 17.2317L14.9816 17.2317C14.9924 17.3384 14.9751 17.4461 14.9313 17.5439C14.8875 17.6418 14.8188 17.7265 14.7321 17.7895C14.6453 17.8525 14.5436 17.8917 14.4369 17.9031C14.3303 17.9145 14.2226 17.8977 14.1245 17.8545L14.1244 17.8544L9.97138 16.0239L9.80658 15.9512L9.64178 16.0239L5.48875 17.8544L5.48867 17.8545C5.39057 17.8977 5.28283 17.9145 5.17621 17.9031C5.0696 17.8917 4.96784 17.8525 4.8811 17.7895C4.79435 17.7265 4.72566 17.6418 4.68188 17.5439C4.6381 17.4461 4.62076 17.3384 4.63159 17.2317L4.6316 17.2317L5.08923 12.7166L5.10739 12.5374L4.98737 12.4031L1.96372 9.0199L1.96361 9.01978C1.89213 8.93987 1.84287 8.84261 1.82073 8.7377C1.7986 8.6328 1.80437 8.52393 1.83747 8.42195C1.87056 8.31998 1.92983 8.22847 2.00936 8.15656C2.08888 8.08466 2.18587 8.03487 2.29065 8.01216L6.72643 7.05113L6.90237 7.01302L6.99298 6.85747L9.27703 2.93658C9.27704 2.93656 9.27705 2.93654 9.27706 2.93652C9.33102 2.84395 9.4083 2.76715 9.5012 2.71376C9.59412 2.66037 9.69941 2.63227 9.80658 2.63227C9.91375 2.63227 10.019 2.66037 10.112 2.71376L10.3142 2.36188L10.112 2.71376C10.2049 2.76716 10.2822 2.84398 10.3361 2.93658L12.6202 6.85747Z" fill="#F4CE14" stroke="#FBDABB" stroke-width="0.817204"/>
</g>
<g clip-path="url(#clip1_31_94)">
<path d="M31.4161 6.85747L31.5067 7.01302L31.6826 7.05113L36.1182 8.01211C36.1182 8.01213 36.1183 8.01214 36.1184 8.01215C36.1184 8.01216 36.1184 8.01216 36.1184 8.01217C36.223 8.03494 36.3198 8.08471 36.3992 8.15653C36.4786 8.2284 36.5379 8.31984 36.571 8.42174C36.604 8.52364 36.6098 8.63243 36.5878 8.73726C36.5657 8.84209 36.5166 8.93932 36.4452 9.01923L33.4217 12.4032L33.3017 12.5374L33.3198 12.7166L33.7775 17.2317L33.7775 17.2317C33.7883 17.3384 33.771 17.4461 33.7272 17.5439C33.6834 17.6418 33.6147 17.7265 33.528 17.7895C33.4412 17.8525 33.3395 17.8917 33.2328 17.9031C33.1262 17.9145 33.0185 17.8977 32.9204 17.8545L32.9203 17.8544L28.7673 16.0239L28.6025 15.9512L28.4377 16.0239L24.2846 17.8544L24.2846 17.8545C24.1865 17.8977 24.0787 17.9145 23.9721 17.9031C23.8655 17.8917 23.7637 17.8525 23.677 17.7895C23.5903 17.7265 23.5216 17.6418 23.4778 17.5439C23.434 17.4461 23.4167 17.3384 23.4275 17.2317L23.4275 17.2317L23.8851 12.7166L23.9033 12.5374L23.7833 12.4031L20.7596 9.0199L20.7595 9.01978C20.688 8.93987 20.6388 8.84261 20.6166 8.7377C20.5945 8.6328 20.6003 8.52393 20.6334 8.42195C20.6665 8.31998 20.7257 8.22847 20.8053 8.15656C20.8848 8.08466 20.9818 8.03487 21.0865 8.01216L25.5223 7.05113L25.6983 7.01302L25.7889 6.85747L28.0729 2.93658C28.0729 2.93656 28.073 2.93654 28.073 2.93652C28.1269 2.84395 28.2042 2.76715 28.2971 2.71376C28.39 2.66037 28.4953 2.63227 28.6025 2.63227C28.7096 2.63227 28.8149 2.66037 28.9079 2.71376L29.1101 2.36188L28.9079 2.71376C29.0008 2.76716 29.0781 2.84398 29.132 2.93658L31.4161 6.85747Z" fill="#F4CE14" stroke="#FBDABB" stroke-width="0.817204"/>
</g>
<g clip-path="url(#clip2_31_94)">
<path d="M50.2115 6.85747L50.3021 7.01302L50.478 7.05113L54.9136 8.01211C54.9136 8.01213 54.9137 8.01214 54.9138 8.01215C54.9138 8.01216 54.9138 8.01216 54.9138 8.01217C55.0184 8.03494 55.1152 8.08471 55.1946 8.15653C55.2741 8.2284 55.3333 8.31984 55.3664 8.42174C55.3995 8.52364 55.4053 8.63243 55.3832 8.73726C55.3611 8.84209 55.312 8.93932 55.2406 9.01923L52.2171 12.4032L52.0971 12.5374L52.1152 12.7166L52.5729 17.2317L52.5729 17.2317C52.5837 17.3384 52.5664 17.4461 52.5226 17.5439C52.4788 17.6418 52.4101 17.7265 52.3234 17.7895C52.2366 17.8525 52.1349 17.8917 52.0283 17.9031C51.9216 17.9145 51.8139 17.8977 51.7158 17.8545L51.7157 17.8544L47.5627 16.0239L47.3979 15.9512L47.2331 16.0239L43.0801 17.8544L43.08 17.8545C42.9819 17.8977 42.8741 17.9145 42.7675 17.9031C42.6609 17.8917 42.5591 17.8525 42.4724 17.7895C42.3857 17.7265 42.317 17.6418 42.2732 17.5439C42.2294 17.4461 42.2121 17.3384 42.2229 17.2317L42.2229 17.2317L42.6805 12.7166L42.6987 12.5374L42.5787 12.4031L39.555 9.0199L39.5549 9.01978C39.4834 8.93987 39.4342 8.84261 39.412 8.7377C39.3899 8.6328 39.3957 8.52393 39.4288 8.42195C39.4619 8.31998 39.5211 8.22847 39.6007 8.15656C39.6802 8.08466 39.7772 8.03487 39.882 8.01216L44.3177 7.05113L44.4937 7.01302L44.5843 6.85747L46.8683 2.93658C46.8684 2.93656 46.8684 2.93654 46.8684 2.93652C46.9223 2.84395 46.9996 2.76715 47.0925 2.71376C47.1854 2.66037 47.2907 2.63227 47.3979 2.63227C47.5051 2.63227 47.6104 2.66037 47.7033 2.71376L47.9055 2.36188L47.7033 2.71376C47.7962 2.76716 47.8735 2.84398 47.9274 2.93658L50.2115 6.85747Z" fill="#F4CE14" stroke="#FBDABB" stroke-width="0.817204"/>
</g>
<g clip-path="url(#clip3_31_94)">
<path d="M69.0069 6.85747L69.0975 7.01302L69.2734 7.05113L73.709 8.01211C73.7091 8.01213 73.7091 8.01214 73.7092 8.01215C73.7092 8.01216 73.7092 8.01216 73.7092 8.01217C73.8138 8.03494 73.9106 8.08471 73.99 8.15653C74.0695 8.2284 74.1287 8.31984 74.1618 8.42174C74.1949 8.52364 74.2007 8.63243 74.1786 8.73726C74.1565 8.84209 74.1074 8.93932 74.036 9.01923L71.0125 12.4032L70.8925 12.5374L70.9107 12.7166L71.3683 17.2317L71.3683 17.2317C71.3791 17.3384 71.3618 17.4461 71.318 17.5439C71.2742 17.6418 71.2055 17.7265 71.1188 17.7895C71.032 17.8525 70.9303 17.8917 70.8237 17.9031C70.7171 17.9145 70.6093 17.8977 70.5112 17.8545L70.5111 17.8544L66.3581 16.0239L66.1933 15.9512L66.0285 16.0239L61.8755 17.8544L61.8754 17.8545C61.7773 17.8977 61.6695 17.9145 61.5629 17.9031C61.4563 17.8917 61.3546 17.8525 61.2678 17.7895C61.1811 17.7265 61.1124 17.6418 61.0686 17.5439C61.0248 17.4461 61.0075 17.3384 61.0183 17.2317L61.0183 17.2317L61.4759 12.7166L61.4941 12.5374L61.3741 12.4031L58.3504 9.0199L58.3503 9.01978C58.2788 8.93987 58.2296 8.84261 58.2075 8.7377C58.1853 8.6328 58.1911 8.52393 58.2242 8.42195C58.2573 8.31998 58.3166 8.22847 58.3961 8.15656C58.4756 8.08466 58.5726 8.03487 58.6774 8.01216L63.1132 7.05113L63.2891 7.01302L63.3797 6.85747L65.6638 2.93658C65.6638 2.93656 65.6638 2.93654 65.6638 2.93652C65.7177 2.84395 65.795 2.76715 65.8879 2.71376C65.9808 2.66037 66.0861 2.63227 66.1933 2.63227C66.3005 2.63227 66.4058 2.66037 66.4987 2.71376L66.7009 2.36188L66.4987 2.71376C66.5916 2.76716 66.6689 2.84398 66.7228 2.93658L69.0069 6.85747Z" fill="#F4CE14" stroke="#FBDABB" stroke-width="0.817204"/>
</g>
<g clip-path="url(#clip4_31_94)">
<path d="M87.8023 6.85747L87.8929 7.01302L88.0689 7.05113L92.5044 8.01211C92.5045 8.01213 92.5045 8.01214 92.5046 8.01215C92.5046 8.01216 92.5046 8.01216 92.5046 8.01217C92.6092 8.03494 92.706 8.08471 92.7854 8.15653C92.8649 8.2284 92.9241 8.31984 92.9572 8.42174C92.9903 8.52364 92.9961 8.63243 92.974 8.73726C92.952 8.84209 92.9028 8.93932 92.8314 9.01923L89.8079 12.4032L89.6879 12.5374L89.7061 12.7166L90.1637 17.2317L90.1637 17.2317C90.1745 17.3384 90.1572 17.4461 90.1134 17.5439C90.0696 17.6418 90.0009 17.7265 89.9142 17.7895C89.8274 17.8525 89.7257 17.8917 89.6191 17.9031C89.5125 17.9145 89.4047 17.8977 89.3066 17.8545L89.3065 17.8544L85.1535 16.0239L84.9887 15.9512L84.8239 16.0239L80.6709 17.8544L80.6708 17.8545C80.5727 17.8977 80.465 17.9145 80.3583 17.9031C80.2517 17.8917 80.15 17.8525 80.0632 17.7895C79.9765 17.7265 79.9078 17.6418 79.864 17.5439C79.8202 17.4461 79.8029 17.3384 79.8137 17.2317L79.8137 17.2317L80.2714 12.7166L80.2895 12.5374L80.1695 12.4031L77.1458 9.0199L77.1457 9.01978C77.0743 8.93987 77.025 8.84261 77.0029 8.7377C76.9807 8.6328 76.9865 8.52393 77.0196 8.42195C77.0527 8.31998 77.112 8.22847 77.1915 8.15656C77.271 8.08466 77.368 8.03487 77.4728 8.01216L81.9086 7.05113L82.0845 7.01302L82.1751 6.85747L84.4592 2.93658C84.4592 2.93656 84.4592 2.93654 84.4592 2.93652C84.5132 2.84395 84.5904 2.76715 84.6833 2.71376C84.7762 2.66037 84.8815 2.63227 84.9887 2.63227C85.0959 2.63227 85.2012 2.66037 85.2941 2.71376L85.4963 2.36188L85.2941 2.71376C85.387 2.76716 85.4643 2.84398 85.5183 2.93658L87.8023 6.85747Z" stroke="#FBDABB" stroke-width="0.817204"/>
</g>
<defs>
<clipPath id="clip0_31_94">
<rect width="19.6129" height="19.6129" fill="white" transform="translate(0 0.387085)"/>
</clipPath>
<clipPath id="clip1_31_94">
<rect width="19.6129" height="19.6129" fill="white" transform="translate(18.7959 0.387085)"/>
</clipPath>
<clipPath id="clip2_31_94">
<rect width="19.6129" height="19.6129" fill="white" transform="translate(37.5913 0.387085)"/>
</clipPath>
<clipPath id="clip3_31_94">
<rect width="19.6129" height="19.6129" fill="white" transform="translate(56.3872 0.387085)"/>
</clipPath>
<clipPath id="clip4_31_94">
<rect width="19.6129" height="19.6129" fill="white" transform="translate(75.1826 0.387085)"/>
</clipPath>
</defs>
</svg>
